<svg xmlns="http://www.w3.org/2000/svg" viewBox="0 0 400 300">
  <rect width="400" height="300" rx="16" fill="#12131a"/>
  <rect x="2" y="2" width="396" height="296" rx="14" fill="none" stroke="#2a2b36" stroke-width="2"/>

  <!-- Simulated "MINE THIS NOW" card -->
  <rect x="24" y="20" width="352" height="120" rx="12" fill="url(#mtn-grad)"/>
  <defs>
    <linearGradient id="mtn-grad" x1="0" y1="0" x2="1" y2="1">
      <stop offset="0%" stop-color="rgba(59,130,246,0.15)"/>
      <stop offset="100%" stop-color="#12131a"/>
    </linearGradient>
  </defs>
  <rect x="24" y="20" width="352" height="120" rx="12" fill="none" stroke="#3b82f6" stroke-width="1.5"/>

  <text x="40" y="48" font-family="monospace" font-size="11" fill="#3b82f6" font-weight="bold">MINE THIS NOW</text>
  <text x="40" y="78" font-family="monospace" font-size="28" fill="#f3f4f6" font-weight="bold">BTC</text>
  <text x="110" y="78" font-family="monospace" font-size="12" fill="#9ca3af">SHA-256</text>
  <text x="40" y="108" font-family="monospace" font-size="22" fill="#22c55e" font-weight="bold">+$14.27/day</text>
  <text x="40" y="126" font-family="monospace" font-size="10" fill="#9ca3af">Revenue: $38.50    Cooling cost: $4.12</text>

  <!-- Arrow pointing to recommendation -->
  <rect x="320" y="60" width="8" height="8" fill="#3b82f6"/>
  <rect x="328" y="52" width="8" height="24" fill="#3b82f6"/>
  <rect x="336" y="60" width="8" height="8" fill="#3b82f6"/>

  <!-- Coin ranking below -->
  <text x="40" y="168" font-family="monospace" font-size="11" fill="#9ca3af">PROFITABILITY RANKING</text>
  <line x1="40" y1="176" x2="360" y2="176" stroke="#2a2b36" stroke-width="1"/>

  <text x="40" y="196" font-family="monospace" font-size="11" fill="#f3f4f6">1. BTC</text>
  <text x="280" y="196" font-family="monospace" font-size="11" fill="#22c55e" text-anchor="end">+$14.27</text>
  <!-- Green bar -->
  <rect x="290" y="187" width="70" height="12" rx="2" fill="#22c55e" opacity="0.2"/>
  <rect x="290" y="187" width="70" height="12" rx="2" fill="#22c55e" opacity="0.6"/>

  <text x="40" y="216" font-family="monospace" font-size="11" fill="#f3f4f6">2. BCH</text>
  <text x="280" y="216" font-family="monospace" font-size="11" fill="#22c55e" text-anchor="end">+$12.85</text>
  <rect x="290" y="207" width="70" height="12" rx="2" fill="#22c55e" opacity="0.2"/>
  <rect x="290" y="207" width="63" height="12" rx="2" fill="#22c55e" opacity="0.5"/>

  <text x="40" y="236" font-family="monospace" font-size="11" fill="#f3f4f6">3. FB</text>
  <text x="280" y="236" font-family="monospace" font-size="11" fill="#22c55e" text-anchor="end">+$11.02</text>
  <rect x="290" y="227" width="70" height="12" rx="2" fill="#22c55e" opacity="0.2"/>
  <rect x="290" y="227" width="54" height="12" rx="2" fill="#22c55e" opacity="0.4"/>

  <text x="40" y="256" font-family="monospace" font-size="11" fill="#f3f4f6">4. DGB</text>
  <text x="280" y="256" font-family="monospace" font-size="11" fill="#f59e0b" text-anchor="end">+$2.11</text>
  <rect x="290" y="247" width="70" height="12" rx="2" fill="#f59e0b" opacity="0.2"/>
  <rect x="290" y="247" width="10" height="12" rx="2" fill="#f59e0b" opacity="0.4"/>

  <text x="40" y="276" font-family="monospace" font-size="11" fill="#f3f4f6">5. XEC</text>
  <text x="280" y="276" font-family="monospace" font-size="11" fill="#ef4444" text-anchor="end">-$0.44</text>
  <rect x="290" y="267" width="70" height="12" rx="2" fill="#ef4444" opacity="0.2"/>
  <rect x="290" y="267" width="3" height="12" rx="2" fill="#ef4444" opacity="0.4"/>
</svg>
